<svg width="24" height="20" viewBox="0 0 24 20" fill="none" xmlns="http://www.w3.org/2000/svg">
<path id="Vector" d="M23.7807 2.29536C22.89 2.68933 21.9455 2.94808 20.9783 3.06303C21.9977 2.45336 22.7607 1.49388 23.125 0.363358C22.1683 0.932692 21.1195 1.33169 20.0263 1.54752C19.292 0.761867 18.3188 0.240815 17.2578 0.0653739C16.1968 -0.110068 15.1076 0.0699312 14.1595 0.577387C13.2114 1.08484 12.4575 1.89132 12.015 2.87145C11.5725 3.85158 11.4662 4.95044 11.7127 5.99719C9.77263 5.89996 7.87472 5.3958 6.14217 4.51747C4.40962 3.63913 2.88115 2.40625 1.656 0.898859C1.22234 1.64372 0.994451 2.49046 0.99567 3.35236C0.99567 5.04402 1.85667 6.53853 3.16567 7.41353C2.39101 7.38914 1.63341 7.17994 0.956003 6.80336V6.86403C0.956237 7.99068 1.3461 9.08258 2.05949 9.9546C2.77288 10.8266 3.7659 11.4251 4.87017 11.6485C4.15105 11.8434 3.39703 11.8721 2.66517 11.7325C2.97652 12.7023 3.58334 13.5504 4.40069 14.1582C5.21804 14.7659 6.20499 15.1028 7.22334 15.1217C6.21123 15.9166 5.05238 16.5042 3.81303 16.8509C2.57368 17.1976 1.27815 17.2967 0.00050354 17.1424C2.23082 18.5767 4.82712 19.3382 7.47884 19.3357C16.454 19.3357 21.3622 11.9005 21.3622 5.45236C21.3622 5.24236 21.3563 5.03003 21.347 4.82236C22.3023 4.13189 23.1269 3.27655 23.7818 2.29653L23.7807 2.29536Z" fill="#888888"/>
</svg>
