<svg width="24" height="15" viewBox="0 0 24 15" fill="none" xmlns="http://www.w3.org/2000/svg">
<path id="Vector" fill-rule="evenodd" clip-rule="evenodd" d="M23.45 1.61585C23.616 1.06985 23.45 0.667847 22.655 0.667847H20.03C19.362 0.667847 19.054 1.01485 18.887 1.39785C18.887 1.39785 17.552 4.59385 15.661 6.66985C15.049 7.27185 14.771 7.46285 14.437 7.46285C14.27 7.46285 14.019 7.27185 14.019 6.72485V1.61585C14.019 0.959847 13.835 0.667847 13.279 0.667847H9.151C8.734 0.667847 8.483 0.971847 8.483 1.26085C8.483 1.88185 9.429 2.02585 9.526 3.77385V7.57185C9.526 8.40485 9.373 8.55585 9.039 8.55585C8.149 8.55585 5.984 5.34485 4.699 1.67085C4.45 0.955846 4.198 0.667847 3.527 0.667847H0.9C0.15 0.667847 0 1.01485 0 1.39785C0 2.07985 0.89 5.46785 4.145 9.94885C6.315 13.0088 9.37 14.6678 12.153 14.6678C13.822 14.6678 14.028 14.2998 14.028 13.6648V11.3518C14.028 10.6148 14.186 10.4678 14.715 10.4678C15.105 10.4678 15.772 10.6598 17.33 12.1348C19.11 13.8838 19.403 14.6678 20.405 14.6678H23.03C23.78 14.6678 24.156 14.2998 23.94 13.5718C23.702 12.8478 22.852 11.7968 21.725 10.5498C21.113 9.83985 20.195 9.07485 19.916 8.69185C19.527 8.20085 19.638 7.98185 19.916 7.54485C19.916 7.54485 23.116 3.11885 23.449 1.61585H23.45Z" fill="#888888"/>
</svg>
